<svg xmlns="http://www.w3.org/2000/svg" xmlns:xlink="http://www.w3.org/1999/xlink" id="Calque_1" data-name="Calque 1" viewBox="0 0 382.68 65.17"><defs><style>      .cls-1 {        clip-path: url(#clippath-4);      }      .cls-1, .cls-2, .cls-3, .cls-4, .cls-5, .cls-6, .cls-7, .cls-8, .cls-9, .cls-10, .cls-11, .cls-12, .cls-13, .cls-14 {        fill: none;      }      .cls-15 {        fill: #6f150f;      }      .cls-2 {        clip-path: url(#clippath-2);      }      .cls-16 {        fill: #fff;      }      .cls-3 {        clip-path: url(#clippath-6);      }      .cls-4 {        clip-path: url(#clippath-9);      }      .cls-5 {        clip-path: url(#clippath-12);      }      .cls-6 {        clip-path: url(#clippath-7);      }      .cls-7 {        clip-path: url(#clippath-10);      }      .cls-8 {        clip-path: url(#clippath-5);      }      .cls-9 {        clip-path: url(#clippath-3);      }      .cls-10 {        clip-path: url(#clippath-11);      }      .cls-12 {        clip-path: url(#clippath);      }      .cls-13 {        clip-path: url(#clippath-1);      }      .cls-14 {        clip-path: url(#clippath-8);      }    </style><clipPath id="clippath"><rect class="cls-11" width="382.68" height="65.17"></rect></clipPath><clipPath id="clippath-1"><rect class="cls-11" width="382.68" height="65.17"></rect></clipPath><clipPath id="clippath-2"><rect class="cls-11" width="382.68" height="65.17"></rect></clipPath><clipPath id="clippath-3"><rect class="cls-11" width="382.68" height="65.17"></rect></clipPath><clipPath id="clippath-4"><rect class="cls-11" width="382.68" height="65.17"></rect></clipPath><clipPath id="clippath-5"><rect class="cls-11" width="382.68" height="65.17"></rect></clipPath><clipPath id="clippath-6"><rect class="cls-11" width="382.68" height="65.17"></rect></clipPath><clipPath id="clippath-7"><rect class="cls-11" width="382.68" height="65.17"></rect></clipPath><clipPath id="clippath-8"><rect class="cls-11" width="382.68" height="65.17"></rect></clipPath><clipPath id="clippath-9"><rect class="cls-11" width="382.68" height="65.17"></rect></clipPath><clipPath id="clippath-10"><rect class="cls-11" width="382.68" height="65.17"></rect></clipPath><clipPath id="clippath-11"><rect class="cls-11" width="382.68" height="65.17"></rect></clipPath><clipPath id="clippath-12"><rect class="cls-11" width="382.68" height="65.17"></rect></clipPath></defs><rect class="cls-15" width="382.68" height="65.17"></rect><g><g class="cls-12"><path class="cls-16" d="m11.56,25.73v8.33h13.02c3.04,0,4.44-1.46,4.44-4.2s-1.46-4.14-4.44-4.14h-13.02Zm0-16v6.93h13.14c2.62,0,3.95-1.16,3.95-3.41,0-2.55-1.58-3.53-3.83-3.53h-13.26ZM0,.61h25.31c9.25,0,14.78,3.71,14.78,11.01,0,4.99-2.62,8.15-7.42,9.37v.12c5.29,1.22,7.91,4.62,7.91,10.16,0,8.09-4.99,11.92-14.96,11.92H0V.61Z"></path></g><path class="cls-16" d="m71.89,26.46h10.83l-5.35-16.91h-.12l-5.35,16.91Zm-2.49-25.85h16.61l14.84,42.58h-12.77l-2.19-6.87h-17.09l-2.19,6.87h-11.62L69.39.61Z"></path><polygon class="cls-16" points="179.85 .61 214.34 .61 214.34 10.34 191.4 10.34 191.4 16.67 210.57 16.67 210.57 26.16 191.4 26.16 191.4 33.46 214.52 33.46 214.52 43.19 179.85 43.19 179.85 .61"></polygon><g class="cls-13"><path class="cls-16" d="m233.5,35.65l7.24-6.39c3.53,3.22,7.73,4.87,12.53,4.87,4.26,0,6.93-1.16,6.93-3.53,0-1.7-1.4-2.62-4.81-3.28l-7.42-1.4c-8.39-1.58-12.71-5.54-12.71-12.29C235.26,5.35,241.71,0,252.35,0c7.79,0,13.81,2.74,17.88,8.09l-7.12,5.47c-2.62-2.92-6.33-4.44-10.77-4.44-3.83,0-5.78,1.09-5.78,2.98,0,1.52,1.28,2.43,4.08,2.98l8.52,1.58c8.58,1.58,12.65,5.47,12.65,12.59,0,9.12-7,14.54-18.74,14.54-8.33,0-14.72-2.62-19.59-8.15"></path></g><polygon class="cls-16" points="300.21 10.71 286.52 10.71 286.52 .61 325.46 .61 325.46 10.71 311.77 10.71 311.77 43.19 300.21 43.19 300.21 10.71"></polygon><g class="cls-2"><path class="cls-16" d="m370.82,21.9c0-6.69-4.08-10.95-10.52-10.95s-10.52,4.26-10.52,10.95,4.08,10.95,10.52,10.95,10.52-4.26,10.52-10.95m-32.91,0C337.91,8.76,347.03,0,360.29,0s22.39,8.76,22.39,21.9-9.12,21.9-22.39,21.9-22.39-8.76-22.39-21.9"></path><path class="cls-16" d="m133.79,9.83c-3.05,0-4.39,1.46-4.39,4.39,0,3.17,1.52,4.33,5.55,4.33h11.9v-8.72h-13.06Zm24.65,33.49h-11.59v-15.56h-11.59c-2.26,0-2.87.61-3.23,2.93l-.92,5.55c-.55,3.17-1.16,5.12-2.32,7.08h-12.26c1.34-2.01,2.14-4.15,2.62-7.32l.55-3.78c.73-5,2.2-7.81,5.61-9.03v-.12c-5.37-1.28-8.11-5.06-8.11-10.68,0-7.81,5.31-11.77,15.19-11.77h26.05v42.71Z"></path></g><polygon class="cls-16" points=".63 57.76 .63 65.01 5.39 65.01 5.39 63.5 2.32 63.5 2.32 57.76 .63 57.76"></polygon><polygon class="cls-16" points="9.7 57.76 9.7 65.01 14.84 65.01 14.84 63.5 11.39 63.5 11.39 62.04 14.32 62.04 14.32 60.62 11.39 60.62 11.39 59.27 14.8 59.27 14.8 57.76 9.7 57.76"></polygon><g class="cls-9"><path class="cls-16" d="m27.06,64.66c-.59-.34-1.06-.8-1.4-1.38-.35-.58-.52-1.21-.52-1.9s.17-1.33.52-1.9c.35-.58.81-1.04,1.4-1.37.59-.34,1.22-.51,1.91-.51.55,0,1.09.11,1.6.33.52.22.96.56,1.33,1.01.37.45.6,1.01.7,1.68h-1.71c-.07-.47-.28-.83-.65-1.09-.37-.26-.8-.39-1.29-.39-.41,0-.77.09-1.09.27-.32.18-.57.44-.75.78-.19.34-.28.74-.28,1.2s.1.86.29,1.2c.19.34.45.6.78.77.33.17.69.26,1.09.26.47,0,.87-.12,1.2-.35.33-.24.56-.61.69-1.12h1.72c-.09.67-.33,1.23-.69,1.69-.37.45-.81.79-1.33,1.01-.52.22-1.05.33-1.59.33-.7,0-1.34-.17-1.93-.51"></path><path class="cls-16" d="m41.8,63.33c.34-.19.61-.46.81-.8.2-.34.3-.73.3-1.16s-.1-.81-.3-1.15c-.2-.34-.47-.6-.81-.8-.34-.19-.72-.29-1.13-.29s-.79.1-1.13.29c-.34.19-.61.46-.81.8-.2.34-.29.72-.29,1.15s.1.81.29,1.16c.2.34.47.61.81.8.34.19.72.29,1.13.29s.79-.1,1.13-.29m-3.11,1.33c-.6-.34-1.08-.8-1.43-1.39-.35-.58-.53-1.21-.53-1.9s.18-1.33.53-1.91c.35-.58.83-1.04,1.43-1.37.6-.33,1.26-.5,1.97-.5s1.37.17,1.98.5c.61.33,1.09.79,1.44,1.37.35.58.53,1.22.53,1.91s-.18,1.32-.53,1.9c-.35.58-.83,1.04-1.44,1.39-.61.34-1.27.51-1.98.51s-1.37-.17-1.97-.51"></path></g><polygon class="cls-16" points="49.17 57.76 49.17 65.01 53.93 65.01 53.93 63.5 50.86 63.5 50.86 57.76 49.17 57.76"></polygon><polygon class="cls-16" points="58.24 57.76 58.24 65.01 62.99 65.01 62.99 63.5 59.93 63.5 59.93 57.76 58.24 57.76"></polygon><polygon class="cls-16" points="67.3 57.76 67.3 65.01 72.45 65.01 72.45 63.5 68.99 63.5 68.99 62.04 71.93 62.04 71.93 60.62 68.99 60.62 68.99 59.27 72.41 59.27 72.41 57.76 67.3 57.76"></polygon><g class="cls-1"><path class="cls-16" d="m78.46,64.66c-.59-.34-1.06-.8-1.4-1.38-.35-.58-.52-1.21-.52-1.9s.17-1.33.52-1.9c.35-.58.81-1.04,1.4-1.37.59-.34,1.22-.51,1.91-.51.55,0,1.09.11,1.6.33.52.22.96.56,1.33,1.01.37.45.6,1.01.7,1.68h-1.71c-.07-.47-.28-.83-.65-1.09-.37-.26-.8-.39-1.29-.39-.41,0-.77.09-1.09.27-.32.18-.57.44-.75.78-.19.34-.28.74-.28,1.2s.1.86.29,1.2c.19.34.45.6.78.77.33.17.69.26,1.09.26.47,0,.87-.12,1.2-.35.33-.24.56-.61.69-1.12h1.72c-.09.67-.33,1.23-.69,1.69s-.81.79-1.33,1.01c-.52.22-1.05.33-1.59.33-.7,0-1.34-.17-1.93-.51"></path></g><polygon class="cls-16" points="87.78 57.76 87.78 59.27 89.8 59.27 89.8 65.01 91.49 65.01 91.49 59.27 93.5 59.27 93.5 57.76 87.78 57.76"></polygon><rect class="cls-16" x="97.82" y="57.76" width="1.69" height="7.24"></rect><polygon class="cls-16" points="104.49 57.76 104.49 65.01 106.18 65.01 106.18 62.35 109.11 62.35 109.11 60.93 106.18 60.93 106.18 59.27 109.59 59.27 109.59 57.76 104.49 57.76"></polygon><path class="cls-16" d="m123.26,60.16l.04-.22h.02l.04.22.9,2.26h-1.9l.9-2.26Zm-.73-2.4l-2.98,7.24h1.79l.47-1.18h3.02l.47,1.18h1.78l-2.97-7.24h-1.58Z"></path><g class="cls-8"><path class="cls-16" d="m132.42,64.81c-.48-.24-.86-.58-1.14-1.03-.28-.45-.41-.97-.41-1.58v-4.44h1.68v4.32c0,.3.06.57.17.8.12.24.29.42.51.56.23.13.49.2.81.2s.58-.07.81-.2c.23-.13.4-.32.52-.56.12-.24.18-.5.18-.8v-4.32h1.68v4.44c0,.57-.13,1.09-.39,1.53-.26.45-.63.8-1.12,1.05-.48.25-1.04.38-1.67.38-.6,0-1.14-.12-1.62-.36"></path><path class="cls-16" d="m149.1,64.82c-.45-.23-.78-.53-.99-.89-.21-.36-.31-.76-.31-1.18h1.68c0,.2.05.37.16.52.11.15.26.27.46.35.2.08.44.13.73.13.47,0,.8-.07,1.01-.2.21-.13.32-.34.32-.63,0-.15-.06-.28-.16-.39-.11-.11-.27-.2-.48-.28-.21-.08-.48-.15-.82-.22-.52-.13-.97-.28-1.35-.44-.39-.16-.71-.39-.97-.7-.26-.31-.39-.7-.39-1.18,0-.65.24-1.17.71-1.55.48-.38,1.17-.57,2.08-.57.63,0,1.15.09,1.57.28.42.19.74.45.95.79.21.34.32.74.32,1.22h-1.7c0-.24-.09-.44-.27-.59-.18-.15-.48-.23-.89-.23s-.69.06-.85.19c-.16.12-.23.29-.23.49,0,.15.05.28.16.39.11.11.28.2.51.28.23.08.55.16.94.23.52.1.97.25,1.35.44.38.19.68.43.9.74.22.3.33.68.33,1.13,0,.71-.28,1.25-.83,1.65-.55.39-1.29.59-2.2.59-.71,0-1.28-.12-1.73-.35"></path></g><polygon class="cls-16" points="158.43 57.76 158.43 65.01 163.58 65.01 163.58 63.5 160.12 63.5 160.12 62.04 163.05 62.04 163.05 60.62 160.12 60.62 160.12 59.27 163.53 59.27 163.53 57.76 158.43 57.76"></polygon><g class="cls-3"><path class="cls-16" d="m171.94,60.9c.19-.18.28-.41.28-.69,0-.17-.04-.32-.13-.47-.09-.15-.21-.26-.36-.34-.15-.08-.32-.13-.5-.13h-1.42v1.9h1.42c.28,0,.52-.09.71-.27m-3.82-3.13h3.17c.51,0,.96.1,1.36.31.4.2.71.49.93.86.22.37.33.79.33,1.27s-.12.92-.37,1.29c-.24.37-.58.65-1.01.83l1.55,2.68h-1.93l-1.28-2.42h-1.07v2.42h-1.69v-7.24Z"></path></g><polygon class="cls-16" points="183.46 57.76 181.5 62.79 181.47 62.79 179.5 57.76 177.71 57.76 180.71 65.01 182.24 65.01 185.24 57.76 183.46 57.76"></polygon><rect class="cls-16" x="189.53" y="57.76" width="1.69" height="7.24"></rect><g class="cls-6"><path class="cls-16" d="m197.7,64.66c-.59-.34-1.06-.8-1.4-1.38-.35-.58-.52-1.21-.52-1.9s.17-1.33.52-1.9.81-1.04,1.4-1.37c.59-.34,1.22-.51,1.91-.51.55,0,1.09.11,1.6.33.52.22.96.56,1.33,1.01.37.45.6,1.01.7,1.68h-1.71c-.07-.47-.28-.83-.65-1.09-.37-.26-.8-.39-1.29-.39-.41,0-.77.09-1.09.27-.32.18-.57.44-.75.78-.19.34-.28.74-.28,1.2s.1.86.29,1.2c.19.34.45.6.78.77.33.17.69.26,1.09.26.47,0,.87-.12,1.2-.35.33-.24.56-.61.69-1.12h1.72c-.09.67-.33,1.23-.69,1.69-.37.45-.81.79-1.33,1.01-.52.22-1.05.33-1.59.33-.7,0-1.34-.17-1.93-.51"></path></g><polygon class="cls-16" points="207.77 57.76 207.77 65.01 212.91 65.01 212.91 63.5 209.46 63.5 209.46 62.04 212.39 62.04 212.39 60.62 209.46 60.62 209.46 59.27 212.87 59.27 212.87 57.76 207.77 57.76"></polygon><g class="cls-14"><path class="cls-16" d="m227.72,63.26c.33-.16.59-.41.76-.73.17-.32.26-.7.26-1.13s-.09-.8-.26-1.12c-.17-.32-.42-.57-.76-.75-.33-.18-.74-.27-1.22-.27h-1.21v4.24h1.22c.47,0,.87-.08,1.2-.25m-4.09-5.49h2.93c.77,0,1.45.15,2.03.45.59.3,1.04.73,1.36,1.27.32.55.49,1.17.49,1.89s-.16,1.35-.49,1.9c-.32.55-.78.97-1.36,1.28-.59.3-1.26.45-2.02.45h-2.94v-7.24Z"></path></g><polygon class="cls-16" points="235 57.76 235 65.01 240.15 65.01 240.15 63.5 236.69 63.5 236.69 62.04 239.63 62.04 239.63 60.62 236.69 60.62 236.69 59.27 240.11 59.27 240.11 57.76 235 57.76"></polygon><polygon class="cls-16" points="255.91 57.76 253.95 62.79 253.92 62.79 251.95 57.76 250.17 57.76 253.16 65.01 254.69 65.01 257.69 57.76 255.91 57.76"></polygon><g class="cls-4"><path class="cls-16" d="m266.28,63.33c.34-.19.61-.46.81-.8.2-.34.3-.73.3-1.16s-.1-.81-.3-1.15c-.2-.34-.47-.6-.81-.8-.34-.19-.72-.29-1.13-.29s-.79.1-1.13.29c-.34.19-.61.46-.81.8-.2.34-.29.72-.29,1.15s.1.81.29,1.16c.2.34.47.61.81.8.34.19.72.29,1.13.29s.79-.1,1.13-.29m-3.11,1.33c-.6-.34-1.08-.8-1.43-1.39-.35-.58-.53-1.21-.53-1.9s.18-1.33.53-1.91c.35-.58.83-1.04,1.43-1.37.6-.33,1.26-.5,1.97-.5s1.37.17,1.98.5c.61.33,1.09.79,1.44,1.37.35.58.53,1.22.53,1.91s-.18,1.32-.53,1.9c-.35.58-.83,1.04-1.44,1.39-.61.34-1.27.51-1.98.51s-1.37-.17-1.97-.51"></path></g><polygon class="cls-16" points="272.71 57.76 272.71 59.27 274.74 59.27 274.74 65.01 276.42 65.01 276.42 59.27 278.44 59.27 278.44 57.76 272.71 57.76"></polygon><g class="cls-7"><path class="cls-16" d="m286.58,60.9c.19-.18.28-.41.28-.69,0-.17-.04-.32-.13-.47-.09-.15-.21-.26-.36-.34-.15-.08-.32-.13-.5-.13h-1.42v1.9h1.42c.28,0,.52-.09.71-.27m-3.82-3.13h3.17c.51,0,.96.1,1.36.31.4.2.71.49.93.86.22.37.33.79.33,1.27s-.12.92-.37,1.29c-.24.37-.58.65-1.01.83l1.55,2.68h-1.93l-1.28-2.42h-1.07v2.42h-1.69v-7.24Z"></path></g><polygon class="cls-16" points="293.19 57.76 293.19 65.01 298.34 65.01 298.34 63.5 294.88 63.5 294.88 62.04 297.81 62.04 297.81 60.62 294.88 60.62 294.88 59.27 298.29 59.27 298.29 57.76 293.19 57.76"></polygon><g class="cls-10"><path class="cls-16" d="m312.86,60.9c.19-.18.28-.41.28-.69,0-.17-.04-.32-.13-.47-.09-.15-.21-.26-.36-.34-.15-.08-.32-.13-.5-.13h-1.42v1.9h1.42c.28,0,.52-.09.71-.27m-3.82-3.13h3.17c.51,0,.96.1,1.36.31.4.2.71.49.93.86.22.37.33.79.33,1.27s-.12.92-.37,1.29c-.24.37-.58.65-1.01.83l1.55,2.68h-1.93l-1.28-2.42h-1.07v2.42h-1.69v-7.24Z"></path></g><path class="cls-16" d="m319.48,57.76v7.24h5.15v-1.51h-3.46v-1.46h2.93v-1.42h-2.93v-1.35h3.41v-1.51h-5.1Zm2.04-.5h1.16l1.05-1.28-1.19-.43-1.01,1.7Z"></path><g class="cls-5"><path class="cls-16" d="m330.62,64.81c-.48-.24-.86-.58-1.14-1.03-.28-.45-.41-.97-.41-1.58v-4.44h1.68v4.32c0,.3.06.57.17.8.12.24.29.42.51.56.23.13.49.2.81.2s.58-.07.81-.2c.22-.13.4-.32.52-.56.12-.24.18-.5.18-.8v-4.32h1.68v4.44c0,.57-.13,1.09-.39,1.53-.26.45-.63.8-1.12,1.05-.48.25-1.04.38-1.67.38-.6,0-1.14-.12-1.62-.36"></path><path class="cls-16" d="m341.21,64.82c-.45-.23-.78-.53-.99-.89-.21-.36-.31-.76-.31-1.18h1.68c0,.2.05.37.16.52.11.15.26.27.46.35.2.08.44.13.73.13.47,0,.8-.07,1.01-.2.21-.13.32-.34.32-.63,0-.15-.05-.28-.16-.39-.11-.11-.27-.2-.48-.28-.21-.08-.48-.15-.82-.22-.52-.13-.97-.28-1.35-.44-.39-.16-.71-.39-.97-.7-.26-.31-.39-.7-.39-1.18,0-.65.24-1.17.71-1.55.48-.38,1.17-.57,2.08-.57.63,0,1.15.09,1.57.28.42.19.74.45.95.79.21.34.32.74.32,1.22h-1.7c0-.24-.09-.44-.27-.59-.18-.15-.48-.23-.89-.23s-.69.06-.85.19c-.16.12-.23.29-.23.49,0,.15.05.28.16.39.11.11.28.2.51.28.23.08.55.16.94.23.52.1.97.25,1.35.44.38.19.68.43.9.74.22.3.33.68.33,1.13,0,.71-.28,1.25-.83,1.65-.55.39-1.29.59-2.2.59-.71,0-1.28-.12-1.73-.35"></path><path class="cls-16" d="m351.46,64.82c-.45-.23-.78-.53-.99-.89-.21-.36-.31-.76-.31-1.18h1.68c0,.2.05.37.16.52.11.15.26.27.46.35.2.08.44.13.73.13.47,0,.8-.07,1.01-.2.21-.13.32-.34.32-.63,0-.15-.05-.28-.16-.39-.11-.11-.27-.2-.48-.28-.21-.08-.48-.15-.82-.22-.52-.13-.97-.28-1.35-.44-.39-.16-.71-.39-.97-.7-.26-.31-.39-.7-.39-1.18,0-.65.24-1.17.71-1.55.48-.38,1.17-.57,2.08-.57.63,0,1.15.09,1.57.28.42.19.74.45.95.79.21.34.32.74.32,1.22h-1.7c0-.24-.09-.44-.27-.59-.18-.15-.48-.23-.89-.23s-.69.06-.85.19c-.16.12-.23.29-.23.49,0,.15.05.28.16.39.11.11.28.2.51.28.23.08.55.16.94.23.52.1.97.25,1.35.44.38.19.68.43.9.74.22.3.33.68.33,1.13,0,.71-.28,1.25-.83,1.65-.55.39-1.29.59-2.2.59-.71,0-1.28-.12-1.73-.35"></path></g><rect class="cls-16" x="360.78" y="57.76" width="1.69" height="7.24"></rect><polygon class="cls-16" points="366.79 57.76 366.79 59.27 368.82 59.27 368.82 65.01 370.5 65.01 370.5 59.27 372.52 59.27 372.52 57.76 366.79 57.76"></polygon><polygon class="cls-16" points="376.84 57.76 376.84 65.01 381.99 65.01 381.99 63.5 378.53 63.5 378.53 62.04 381.47 62.04 381.47 60.62 378.53 60.62 378.53 59.27 381.95 59.27 381.95 57.76 376.84 57.76"></polygon></g></svg>