<svg width="511" height="83" viewBox="0 0 511 83" fill="none" xmlns="http://www.w3.org/2000/svg">
    <g clip-path="url(#clip0_3_2)">
        <path d="M45.37 0C41.68 0.02 0.01 0.02 0.04 0L0 82.63H37.99C37.97 82.56 81.7 84.26 82.57 40.02C82.93 20.32 64.77 0.71 45.37 0ZM37.24 71.74H22.75V10.29H34.12C34.12 10.29 55.63 9.94 56.88 39.36C58.23 68.85 37.19 71.77 37.23 71.74H37.24Z" fill="white"/>
        <path d="M96.16 0.869988V82.63H150.85V71.23H119.29V44.97H147.55V34.4H119.29V11.11H149.56V0.0499878H96.16V0.869988Z" fill="white"/>
        <path d="M168.95 0.109985V82.63H223.46V71.23H192.26V0.109985H168.95Z" fill="white"/>
        <path d="M281.78 0.019989H259.06L229.13 82.63H241.25L249.98 57.98H278.29L288.3 82.63H314.27L281.89 0.379989L281.78 0.019989ZM253.83 47.12L263.91 18.71L274.74 47.12H253.84H253.83Z" fill="white"/>
        <path d="M374.54 40.35C374.54 40.35 390.14 36.42 390.14 21.36C390.13 0 364.92 0 364.84 0H321.68L321.71 82.63H369.37C369.37 82.63 393.25 82.63 393.25 60.17C393.25 44.94 374.44 40.28 374.53 40.35H374.54ZM354.1 10.29C361.33 10.29 367.18 13.14 367.18 22.35C367.18 34.01 359.3 34.57 359.29 34.57H345.52V10.29H354.1ZM368.3 59.34C368.3 71.59 359.3 71.52 359.3 71.56H345.51V44.46C345.51 44.46 353.17 44.46 354.16 44.46C362.03 44.46 368.29 48.31 368.29 59.33L368.3 59.34Z" fill="white"/>
        <path d="M411.51 0.0499878H434.45V82.63H411.51V0.0499878Z" fill="white"/>
        <path d="M455.43 0.38V82.63H510.11V70.74H478.54V44.31H506.81V33.9H478.54V10.45H508.64V0H455.43V0.38Z" fill="white"/>
    </g>
    <defs>
        <clipPath id="clip0_3_2">
            <rect width="510.11" height="82.63" fill="white"/>
        </clipPath>
    </defs>
</svg>
