<svg version="1.2" xmlns="http://www.w3.org/2000/svg" viewBox="0 0 1400 400" width="1400" height="400">
	<title>Logo Valobat</title>
	<style>
		.s0 { fill: #ffffff } 
		.s1 { fill: #ff6a5b } 
		.s2 { fill: #db6053 } 
		.s3 { fill: #4f4f4f } 
	</style>
	<path id="&lt;Path&gt;" class="s0" d="m281.4 203.3l-102-102.2-102 102.2h35.8v85.2h132.5v-85.2z"/>
	<path id="&lt;Path&gt;" class="s1" d="m245.7 288.5z"/>
	<path id="&lt;Path&gt;" class="s1" d="m113.2 203.3h-35.8l102-102.2h155.4c-2-2.2-4.2-4.1-6.5-5.4l-133.3-77c-8.6-4.9-22.6-4.9-31.1 0l-133.3 77c-8.6 4.9-15.6 17-15.6 26.9v153.9c0 3.9 1.1 8.1 2.9 12h95.3z"/>
	<path id="&lt;Path&gt;" class="s2" d="m334.8 101.1h-155.4l102 102.2h-35.7v85.2h-227.7c2.8 6.3 7.3 12 12.6 15l133.3 77c8.5 4.9 22.5 4.9 31.1 0l133.3-77c8.6-4.9 15.6-17.1 15.6-27v-153.9c0-7.2-3.8-15.5-9.1-21.5z"/>
	<path id="&lt;Compound Path&gt;" class="s3" d="m456 281.4l-67-167.5h32.7l44.7 111.3 44.4-111.3h32.7l-66.9 167.5z"/>
	<path id="&lt;Compound Path&gt;" fill-rule="evenodd" class="s3" d="m624.7 113.9c21.2 0 38.4 5.7 50.4 16.5 12.7 11.1 19.7 27.3 19.7 46.9v104.1h-30.5v-8.6c-10.8 5.7-24.1 8.6-39.6 8.6h-7c-18.4 0-33.3-3.8-44.1-11.8-6.3-4.4-11.1-9.8-14.3-16.5-3.1-6.3-4.7-13.3-4.7-21.2 0-7.6 1.6-14.9 4.7-21.3 3.2-6.6 8-12 14.3-16.4 10.8-7.7 25.7-11.8 44.1-11.8h46.6v-5.1c0-10.7-3.1-19-9.2-24.1-6.3-5.7-16.8-8.8-30.4-8.8h-0.3c-36.5 0-38.7 20.9-39.4 27.5l-30.1-3.1c1.6-17.5 9.2-31.4 21.9-40.9 12-9.2 27.9-14 47.6-14zm-7 99c-8.3 0-19.7 1.2-26.7 6-2.5 2.2-6 5.4-6 13 0 7.6 3.5 11.1 6 13 4.2 2.8 11.8 6 26.7 6h7c13.6 0 24.1-2.8 30.4-8.5 6-5.4 9.2-13.4 9.2-24.1v-5.4z"/>
	<path id="&lt;Compound Path&gt;" class="s3" d="m758.5 218.3c0 8.2 1 19.6 6 26.6 1.9 2.8 5.4 6 13 6v30.5c-7.9 0-14.9-1.6-21.2-4.8-6.7-3.2-12.1-7.9-16.5-13.9-7.9-11.1-11.7-26.1-11.7-44.4v-158.9h30.4z"/>
	<path id="&lt;Compound Path&gt;" fill-rule="evenodd" class="s3" d="m915.5 130.4c12.7 11.1 19.4 27.3 19.4 46.9v41c0 19.6-6.7 35.8-19.4 46.9q-18.5 16.2-50.4 16.2c-21.6 0-38.4-5.4-50.8-16.2-12.6-11.1-19.3-27.3-19.3-46.9v-41c0-19.6 6.7-35.8 19.3-46.9 12.4-10.8 29.2-16.5 50.8-16.5 21.2 0 38 5.7 50.4 16.5zm-81.2 22.8c-5.7 5.1-8.9 13.4-8.9 24.1v41c0 10.7 3.2 18.7 8.9 24.1 6.7 5.7 17.1 8.5 30.8 8.5 13.3 0 23.8-2.8 30.4-8.5 6.1-5.4 8.9-13.4 8.9-24.1v-41c0-10.7-2.8-19-8.9-24.1-6.6-5.7-17.1-8.8-30.4-8.8-13.7 0-24.1 3.1-30.8 8.8z"/>
	<path id="&lt;Compound Path&gt;" fill-rule="evenodd" class="s1" d="m998.6 122.8c10.8-5.7 24.1-8.9 39.7-8.9 21.2 0 38 5.7 50.4 16.5 12.7 11.1 19.3 27.3 19.3 46.9v41c0 19.6-6.6 35.8-19.3 46.9q-18.6 16.2-50.4 16.2c-15.6 0-28.9-2.9-39.7-8.6v8.6h-30.4v-222h30.4zm8.9 30.4c-5.7 5.1-8.9 13.3-8.9 24.1v40.9c0 10.8 3.2 18.7 8.9 24.1 6.7 5.7 17.1 8.6 30.8 8.6 13.3 0 23.7-2.9 30.4-8.6 6-5.4 8.9-13.3 8.9-24.1v-40.9c0-10.8-2.9-19-8.9-24.1-6.7-5.7-17.1-8.9-30.4-8.9-13.7 0-24.1 3.2-30.8 8.9z"/>
	<path id="&lt;Compound Path&gt;" fill-rule="evenodd" class="s1" d="m1201.9 113.9c21.3 0 38.4 5.7 50.4 16.5 12.7 11.1 19.7 27.3 19.7 46.9v104.1h-30.4v-8.6c-10.8 5.7-24.2 8.6-39.7 8.6h-7c-18.4 0-33.3-3.8-44.1-11.8-6.3-4.4-11.1-9.8-14.2-16.5-3.2-6.3-4.8-13.3-4.8-21.2 0-7.6 1.6-14.9 4.8-21.3 3.1-6.6 7.9-12 14.2-16.4 10.8-7.7 25.7-11.8 44.1-11.8h46.7v-5.1c0-10.7-3.2-19-9.2-24.1-6.4-5.7-16.9-8.8-30.5-8.8h-0.3c-36.5 0-38.7 20.9-39.3 27.5l-30.2-3.1c1.6-17.5 9.2-31.4 21.9-40.9 12.1-9.2 27.9-14 47.6-14zm-7 99c-8.2 0-19.6 1.2-26.6 6-2.6 2.2-6.1 5.4-6.1 13 0 7.6 3.5 11.1 6.1 13 4.1 2.8 11.7 6 26.6 6h7c13.6 0 24.1-2.8 30.4-8.5 6.1-5.4 9.2-13.4 9.2-24.1v-5.4z"/>
	<path id="&lt;Compound Path&gt;" class="s1" d="m1384.6 113.9v30.5h-39.3v73.9c0 10.7 2.8 18.7 8.8 24.1 6.7 5.7 17.2 8.5 30.5 8.5v30.5q-31.9 0-50.4-16.2c-12.7-11.1-19.4-27.3-19.4-46.9v-73.9h-19v-30.5h19v-54.5h30.5v54.5z"/>
</svg>